<mxfile host="app.diagrams.net" modified="2024-05-01T07:13:12.843Z" agent="Mozilla/5.0 (Windows NT 10.0; Win64; x64) AppleWebKit/537.36 (KHTML, like Gecko) Chrome/124.0.0.0 Safari/537.36" etag="fzihUDv5mXp3IHClE0Hf" version="24.3.1" type="github">
  <diagram name="Page-1" id="Kw0T0G8psv217tm7f2R3">
    <mxGraphModel dx="3336" dy="3584" grid="0" gridSize="10" guides="1" tooltips="1" connect="1" arrows="1" fold="1" page="0" pageScale="1" pageWidth="850" pageHeight="1100" math="0" shadow="0">
      <root>
        <mxCell id="0" />
        <mxCell id="1" parent="0" />
        <mxCell id="sCqtAaAMjSmW4aDhzga--57" value="" style="group" parent="1" vertex="1" connectable="0">
          <mxGeometry x="2685" y="2135" width="393" height="290" as="geometry" />
        </mxCell>
        <mxCell id="sCqtAaAMjSmW4aDhzga--47" value="" style="rounded=0;whiteSpace=wrap;html=1;" parent="sCqtAaAMjSmW4aDhzga--57" vertex="1">
          <mxGeometry width="393" height="290" as="geometry" />
        </mxCell>
        <mxCell id="sCqtAaAMjSmW4aDhzga--49" value="By filling the Details and on clicking the Sign Up button. APP registration will be completed&amp;nbsp;" style="text;strokeColor=none;fillColor=none;html=1;align=center;verticalAlign=middle;whiteSpace=wrap;rounded=0;fontSize=16;" parent="sCqtAaAMjSmW4aDhzga--57" vertex="1">
          <mxGeometry x="76" y="55" width="262" height="202" as="geometry" />
        </mxCell>
        <mxCell id="sCqtAaAMjSmW4aDhzga--14" style="edgeStyle=none;curved=1;rounded=0;orthogonalLoop=1;jettySize=auto;html=1;exitX=1;exitY=1;exitDx=0;exitDy=0;fontSize=12;startSize=8;endSize=8;" parent="1" edge="1">
          <mxGeometry relative="1" as="geometry">
            <mxPoint x="2429" y="73" as="sourcePoint" />
            <mxPoint x="2429" y="73" as="targetPoint" />
          </mxGeometry>
        </mxCell>
        <mxCell id="sCqtAaAMjSmW4aDhzga--65" value="" style="group" parent="1" vertex="1" connectable="0">
          <mxGeometry x="2936" y="516" width="336" height="236" as="geometry" />
        </mxCell>
        <mxCell id="sCqtAaAMjSmW4aDhzga--45" value="" style="rounded=0;whiteSpace=wrap;html=1;" parent="sCqtAaAMjSmW4aDhzga--65" vertex="1">
          <mxGeometry width="335.99999999999994" height="236" as="geometry" />
        </mxCell>
        <mxCell id="sCqtAaAMjSmW4aDhzga--13" value="for activation of APP internet required to verify and validate the APP CODE(License Key ).One Time only&amp;nbsp;" style="text;strokeColor=none;fillColor=none;html=1;align=center;verticalAlign=middle;whiteSpace=wrap;rounded=0;fontSize=16;" parent="sCqtAaAMjSmW4aDhzga--65" vertex="1">
          <mxGeometry x="36.65454545454545" y="53.682403433476395" width="254.54545454545453" height="151.931330472103" as="geometry" />
        </mxCell>
        <mxCell id="sCqtAaAMjSmW4aDhzga--69" value="" style="edgeStyle=none;curved=1;rounded=0;orthogonalLoop=1;jettySize=auto;html=1;fontSize=12;startSize=8;endSize=8;" parent="1" source="sCqtAaAMjSmW4aDhzga--67" target="sCqtAaAMjSmW4aDhzga--13" edge="1">
          <mxGeometry relative="1" as="geometry" />
        </mxCell>
        <mxCell id="sCqtAaAMjSmW4aDhzga--68" value="" style="edgeStyle=none;curved=1;rounded=0;orthogonalLoop=1;jettySize=auto;html=1;fontSize=12;startSize=8;endSize=8;" parent="1" source="sCqtAaAMjSmW4aDhzga--61" target="sCqtAaAMjSmW4aDhzga--67" edge="1">
          <mxGeometry relative="1" as="geometry" />
        </mxCell>
        <mxCell id="sCqtAaAMjSmW4aDhzga--70" value="" style="group" parent="1" vertex="1" connectable="0">
          <mxGeometry x="2890" y="187" width="428" height="231" as="geometry" />
        </mxCell>
        <mxCell id="sCqtAaAMjSmW4aDhzga--67" value="" style="shape=parallelogram;perimeter=parallelogramPerimeter;whiteSpace=wrap;html=1;fixedSize=1;" parent="sCqtAaAMjSmW4aDhzga--70" vertex="1">
          <mxGeometry width="428" height="231" as="geometry" />
        </mxCell>
        <mxCell id="sCqtAaAMjSmW4aDhzga--12" value="Sign in by Using device Id and App code(License key )" style="text;strokeColor=none;fillColor=none;html=1;align=center;verticalAlign=middle;whiteSpace=wrap;rounded=0;fontSize=16;" parent="sCqtAaAMjSmW4aDhzga--70" vertex="1">
          <mxGeometry x="15" y="42" width="398" height="152" as="geometry" />
        </mxCell>
        <mxCell id="sCqtAaAMjSmW4aDhzga--71" value="" style="group" parent="1" vertex="1" connectable="0">
          <mxGeometry x="2835" y="-180" width="555" height="277" as="geometry" />
        </mxCell>
        <mxCell id="sCqtAaAMjSmW4aDhzga--61" value="" style="rounded=1;whiteSpace=wrap;html=1;" parent="sCqtAaAMjSmW4aDhzga--71" vertex="1">
          <mxGeometry width="555" height="277" as="geometry" />
        </mxCell>
        <mxCell id="sCqtAaAMjSmW4aDhzga--63" value="Start&lt;div&gt;&lt;br&gt;&lt;/div&gt;" style="text;strokeColor=none;fillColor=none;html=1;align=center;verticalAlign=middle;whiteSpace=wrap;rounded=0;fontSize=16;" parent="sCqtAaAMjSmW4aDhzga--71" vertex="1">
          <mxGeometry x="209" y="95" width="143" height="70" as="geometry" />
        </mxCell>
        <mxCell id="sCqtAaAMjSmW4aDhzga--73" value="" style="edgeStyle=none;curved=1;rounded=0;orthogonalLoop=1;jettySize=auto;html=1;fontSize=12;startSize=8;endSize=8;" parent="1" source="sCqtAaAMjSmW4aDhzga--45" target="sCqtAaAMjSmW4aDhzga--18" edge="1">
          <mxGeometry relative="1" as="geometry">
            <Array as="points">
              <mxPoint x="3246" y="870" />
            </Array>
          </mxGeometry>
        </mxCell>
        <mxCell id="sCqtAaAMjSmW4aDhzga--75" value="" style="group" parent="1" vertex="1" connectable="0">
          <mxGeometry x="3022" y="876" width="154" height="243" as="geometry" />
        </mxCell>
        <mxCell id="sCqtAaAMjSmW4aDhzga--74" value="" style="shape=cylinder3;whiteSpace=wrap;html=1;boundedLbl=1;backgroundOutline=1;size=15;" parent="sCqtAaAMjSmW4aDhzga--75" vertex="1">
          <mxGeometry width="154" height="243" as="geometry" />
        </mxCell>
        <mxCell id="sCqtAaAMjSmW4aDhzga--18" value="At Server it will check the App code (License Key) exist or not&amp;nbsp;&amp;nbsp;" style="text;strokeColor=none;fillColor=none;html=1;align=center;verticalAlign=middle;whiteSpace=wrap;rounded=0;fontSize=16;" parent="sCqtAaAMjSmW4aDhzga--75" vertex="1">
          <mxGeometry x="1" y="3" width="152" height="186" as="geometry" />
        </mxCell>
        <mxCell id="sCqtAaAMjSmW4aDhzga--78" value="" style="group" parent="1" vertex="1" connectable="0">
          <mxGeometry x="2871" y="1166" width="436" height="139" as="geometry" />
        </mxCell>
        <mxCell id="sCqtAaAMjSmW4aDhzga--19" value="" style="rounded=0;whiteSpace=wrap;html=1;" parent="sCqtAaAMjSmW4aDhzga--78" vertex="1">
          <mxGeometry width="436" height="139" as="geometry" />
        </mxCell>
        <mxCell id="sCqtAaAMjSmW4aDhzga--21" value="After verifying&amp;nbsp; the App Code (License Key)&amp;nbsp; it should return valid =1 (anything that is positive response) that will allow the work flow of app to proceed next." style="text;strokeColor=none;fillColor=none;html=1;align=center;verticalAlign=middle;whiteSpace=wrap;rounded=0;fontSize=16;" parent="sCqtAaAMjSmW4aDhzga--78" vertex="1">
          <mxGeometry x="74" y="14" width="298" height="106" as="geometry" />
        </mxCell>
        <mxCell id="sCqtAaAMjSmW4aDhzga--79" value="" style="edgeStyle=none;curved=1;rounded=0;orthogonalLoop=1;jettySize=auto;html=1;fontSize=12;startSize=8;endSize=8;" parent="1" source="sCqtAaAMjSmW4aDhzga--74" target="sCqtAaAMjSmW4aDhzga--21" edge="1">
          <mxGeometry relative="1" as="geometry" />
        </mxCell>
        <mxCell id="sCqtAaAMjSmW4aDhzga--80" value="" style="edgeStyle=none;curved=1;rounded=0;orthogonalLoop=1;jettySize=auto;html=1;fontSize=12;startSize=8;endSize=8;" parent="1" source="sCqtAaAMjSmW4aDhzga--21" target="sCqtAaAMjSmW4aDhzga--54" edge="1">
          <mxGeometry relative="1" as="geometry" />
        </mxCell>
        <mxCell id="sCqtAaAMjSmW4aDhzga--87" value="" style="group" parent="1" vertex="1" connectable="0">
          <mxGeometry x="2674" y="1367" width="766.5" height="697" as="geometry" />
        </mxCell>
        <mxCell id="sCqtAaAMjSmW4aDhzga--54" value="" style="rhombus;whiteSpace=wrap;html=1;" parent="sCqtAaAMjSmW4aDhzga--87" vertex="1">
          <mxGeometry width="766.5" height="697" as="geometry" />
        </mxCell>
        <mxCell id="sCqtAaAMjSmW4aDhzga--83" value="" style="group" parent="sCqtAaAMjSmW4aDhzga--87" vertex="1" connectable="0">
          <mxGeometry x="154" y="209" width="453" height="274" as="geometry" />
        </mxCell>
        <mxCell id="sCqtAaAMjSmW4aDhzga--85" value="" style="group" parent="sCqtAaAMjSmW4aDhzga--83" vertex="1" connectable="0">
          <mxGeometry width="453" height="274" as="geometry" />
        </mxCell>
        <mxCell id="sCqtAaAMjSmW4aDhzga--81" value="" style="shape=parallelogram;perimeter=parallelogramPerimeter;whiteSpace=wrap;html=1;fixedSize=1;" parent="sCqtAaAMjSmW4aDhzga--85" vertex="1">
          <mxGeometry width="453" height="274" as="geometry" />
        </mxCell>
        <mxCell id="sCqtAaAMjSmW4aDhzga--24" value="Here after verify the the App Code(License Key ).&lt;div&gt;A registration form will appear in which user have to enter the following information:&lt;/div&gt;&lt;div&gt;1.name&lt;/div&gt;&lt;div&gt;2.Phone No.&lt;/div&gt;&lt;div&gt;&lt;span style=&quot;background-color: initial;&quot;&gt;3. State&lt;/span&gt;&lt;br&gt;&lt;/div&gt;&lt;div&gt;4. District/City&amp;nbsp; and a link wher you can find you registered account if you have sign up before then&amp;nbsp;&lt;/div&gt;" style="text;strokeColor=none;fillColor=none;html=1;align=center;verticalAlign=middle;whiteSpace=wrap;rounded=0;fontSize=16;" parent="sCqtAaAMjSmW4aDhzga--85" vertex="1">
          <mxGeometry x="44" y="53" width="365" height="175" as="geometry" />
        </mxCell>
        <mxCell id="sCqtAaAMjSmW4aDhzga--86" style="edgeStyle=none;curved=1;rounded=0;orthogonalLoop=1;jettySize=auto;html=1;exitX=1;exitY=0.25;exitDx=0;exitDy=0;fontSize=12;startSize=8;endSize=8;" parent="sCqtAaAMjSmW4aDhzga--85" source="sCqtAaAMjSmW4aDhzga--24" target="sCqtAaAMjSmW4aDhzga--24" edge="1">
          <mxGeometry relative="1" as="geometry" />
        </mxCell>
        <mxCell id="gk5LL37D9HSjhOJYbB8Y-6" value="else&lt;div&gt;&lt;br&gt;&lt;/div&gt;" style="text;strokeColor=none;fillColor=none;html=1;align=center;verticalAlign=middle;whiteSpace=wrap;rounded=0;fontSize=16;" vertex="1" parent="sCqtAaAMjSmW4aDhzga--87">
          <mxGeometry x="212" y="679" width="60" height="30" as="geometry" />
        </mxCell>
        <mxCell id="sCqtAaAMjSmW4aDhzga--89" value="" style="group" parent="1" vertex="1" connectable="0">
          <mxGeometry x="3268" y="2080" width="520" height="300" as="geometry" />
        </mxCell>
        <mxCell id="sCqtAaAMjSmW4aDhzga--88" value="" style="shape=parallelogram;perimeter=parallelogramPerimeter;whiteSpace=wrap;html=1;fixedSize=1;" parent="sCqtAaAMjSmW4aDhzga--89" vertex="1">
          <mxGeometry width="520" height="300" as="geometry" />
        </mxCell>
        <mxCell id="sCqtAaAMjSmW4aDhzga--44" value="In registered Accounts , a single account will shown up if registered like in screen shot .when you select the account the detail on form will fill up automatically&amp;nbsp; and then complete the sign in process by clicking the&amp;nbsp;&lt;div&gt;Sign in button&lt;/div&gt;" style="text;strokeColor=none;fillColor=none;html=1;align=center;verticalAlign=middle;whiteSpace=wrap;rounded=0;fontSize=16;" parent="sCqtAaAMjSmW4aDhzga--89" vertex="1">
          <mxGeometry x="111" y="18.75" width="324" height="262.5" as="geometry" />
        </mxCell>
        <mxCell id="sCqtAaAMjSmW4aDhzga--92" style="edgeStyle=none;curved=1;rounded=0;orthogonalLoop=1;jettySize=auto;html=1;exitX=0;exitY=1;exitDx=0;exitDy=0;fontSize=12;startSize=8;endSize=8;" parent="1" source="sCqtAaAMjSmW4aDhzga--88" target="sCqtAaAMjSmW4aDhzga--90" edge="1">
          <mxGeometry relative="1" as="geometry" />
        </mxCell>
        <mxCell id="sCqtAaAMjSmW4aDhzga--93" style="edgeStyle=none;curved=1;rounded=0;orthogonalLoop=1;jettySize=auto;html=1;exitX=1;exitY=1;exitDx=0;exitDy=0;entryX=0.391;entryY=0.01;entryDx=0;entryDy=0;entryPerimeter=0;fontSize=12;startSize=8;endSize=8;" parent="1" source="sCqtAaAMjSmW4aDhzga--81" target="sCqtAaAMjSmW4aDhzga--88" edge="1">
          <mxGeometry relative="1" as="geometry" />
        </mxCell>
        <mxCell id="sCqtAaAMjSmW4aDhzga--94" value="if Account Exist&lt;div&gt;&lt;br&gt;&lt;/div&gt;" style="text;strokeColor=none;fillColor=none;html=1;align=center;verticalAlign=middle;whiteSpace=wrap;rounded=0;fontSize=16;" parent="1" vertex="1">
          <mxGeometry x="3404" y="1938" width="149" height="99" as="geometry" />
        </mxCell>
        <mxCell id="sCqtAaAMjSmW4aDhzga--96" value="" style="group" parent="1" vertex="1" connectable="0">
          <mxGeometry x="2937" y="2622" width="169" height="258" as="geometry" />
        </mxCell>
        <mxCell id="sCqtAaAMjSmW4aDhzga--90" value="" style="shape=cylinder3;whiteSpace=wrap;html=1;boundedLbl=1;backgroundOutline=1;size=15;" parent="sCqtAaAMjSmW4aDhzga--96" vertex="1">
          <mxGeometry width="169" height="258" as="geometry" />
        </mxCell>
        <mxCell id="sCqtAaAMjSmW4aDhzga--95" value="It will Update the details in database.and validate the APP" style="text;strokeColor=none;fillColor=none;html=1;align=center;verticalAlign=middle;whiteSpace=wrap;rounded=0;fontSize=16;" parent="sCqtAaAMjSmW4aDhzga--96" vertex="1">
          <mxGeometry x="13" y="42" width="135" height="204" as="geometry" />
        </mxCell>
        <mxCell id="sCqtAaAMjSmW4aDhzga--98" value="" style="edgeStyle=none;curved=1;rounded=0;orthogonalLoop=1;jettySize=auto;html=1;fontSize=12;startSize=8;endSize=8;" parent="1" source="sCqtAaAMjSmW4aDhzga--54" target="sCqtAaAMjSmW4aDhzga--47" edge="1">
          <mxGeometry relative="1" as="geometry" />
        </mxCell>
        <mxCell id="sCqtAaAMjSmW4aDhzga--99" style="edgeStyle=none;curved=1;rounded=0;orthogonalLoop=1;jettySize=auto;html=1;exitX=0.5;exitY=1;exitDx=0;exitDy=0;entryX=0.5;entryY=0;entryDx=0;entryDy=0;entryPerimeter=0;fontSize=12;startSize=8;endSize=8;" parent="1" source="sCqtAaAMjSmW4aDhzga--47" target="sCqtAaAMjSmW4aDhzga--90" edge="1">
          <mxGeometry relative="1" as="geometry" />
        </mxCell>
        <mxCell id="sCqtAaAMjSmW4aDhzga--101" value="" style="group" parent="1" vertex="1" connectable="0">
          <mxGeometry x="2786" y="2988" width="492" height="388" as="geometry" />
        </mxCell>
        <mxCell id="sCqtAaAMjSmW4aDhzga--100" value="" style="rhombus;whiteSpace=wrap;html=1;" parent="sCqtAaAMjSmW4aDhzga--101" vertex="1">
          <mxGeometry width="492" height="388" as="geometry" />
        </mxCell>
        <mxCell id="sCqtAaAMjSmW4aDhzga--52" value="Homepage of app will appear. after the whole process of registration . app will direct open to Home page by default." style="text;strokeColor=none;fillColor=none;html=1;align=center;verticalAlign=middle;whiteSpace=wrap;rounded=0;fontSize=16;" parent="sCqtAaAMjSmW4aDhzga--101" vertex="1">
          <mxGeometry x="74" y="109.5" width="360" height="169" as="geometry" />
        </mxCell>
        <mxCell id="sCqtAaAMjSmW4aDhzga--102" value="" style="edgeStyle=none;curved=1;rounded=0;orthogonalLoop=1;jettySize=auto;html=1;fontSize=12;startSize=8;endSize=8;" parent="1" source="sCqtAaAMjSmW4aDhzga--95" target="sCqtAaAMjSmW4aDhzga--100" edge="1">
          <mxGeometry relative="1" as="geometry" />
        </mxCell>
        <mxCell id="gk5LL37D9HSjhOJYbB8Y-1" value="" style="group" vertex="1" connectable="0" parent="1">
          <mxGeometry x="2741" y="3502" width="555" height="277" as="geometry" />
        </mxCell>
        <mxCell id="gk5LL37D9HSjhOJYbB8Y-2" value="" style="rounded=1;whiteSpace=wrap;html=1;" vertex="1" parent="gk5LL37D9HSjhOJYbB8Y-1">
          <mxGeometry width="555" height="277" as="geometry" />
        </mxCell>
        <mxCell id="gk5LL37D9HSjhOJYbB8Y-3" value="&lt;div&gt;END&lt;/div&gt;" style="text;strokeColor=none;fillColor=none;html=1;align=center;verticalAlign=middle;whiteSpace=wrap;rounded=0;fontSize=16;" vertex="1" parent="gk5LL37D9HSjhOJYbB8Y-1">
          <mxGeometry x="209" y="95" width="143" height="70" as="geometry" />
        </mxCell>
        <mxCell id="gk5LL37D9HSjhOJYbB8Y-5" value="" style="edgeStyle=none;curved=1;rounded=0;orthogonalLoop=1;jettySize=auto;html=1;fontSize=12;startSize=8;endSize=8;" edge="1" parent="1" source="sCqtAaAMjSmW4aDhzga--100" target="gk5LL37D9HSjhOJYbB8Y-2">
          <mxGeometry relative="1" as="geometry" />
        </mxCell>
        <mxCell id="gk5LL37D9HSjhOJYbB8Y-7" value="if (1)&lt;div&gt;&lt;br&gt;&lt;/div&gt;" style="text;strokeColor=none;fillColor=none;html=1;align=center;verticalAlign=middle;whiteSpace=wrap;rounded=0;fontSize=16;" vertex="1" parent="1">
          <mxGeometry x="3098" y="814" width="60" height="30" as="geometry" />
        </mxCell>
        <mxCell id="gk5LL37D9HSjhOJYbB8Y-8" value="" style="strokeWidth=2;html=1;shape=mxgraph.flowchart.decision;whiteSpace=wrap;" vertex="1" parent="1">
          <mxGeometry x="3307" y="902" width="167" height="135" as="geometry" />
        </mxCell>
        <mxCell id="gk5LL37D9HSjhOJYbB8Y-11" value="" style="endArrow=classic;html=1;rounded=0;fontSize=12;startSize=8;endSize=8;curved=1;exitX=1;exitY=1;exitDx=0;exitDy=0;entryX=0.467;entryY=0.02;entryDx=0;entryDy=0;entryPerimeter=0;" edge="1" parent="1" source="sCqtAaAMjSmW4aDhzga--45" target="gk5LL37D9HSjhOJYbB8Y-8">
          <mxGeometry width="50" height="50" relative="1" as="geometry">
            <mxPoint x="3290" y="831" as="sourcePoint" />
            <mxPoint x="3340" y="781" as="targetPoint" />
          </mxGeometry>
        </mxCell>
        <mxCell id="gk5LL37D9HSjhOJYbB8Y-12" value="Invalid credentials (Exit)" style="text;strokeColor=none;fillColor=none;html=1;align=center;verticalAlign=middle;whiteSpace=wrap;rounded=0;fontSize=16;" vertex="1" parent="1">
          <mxGeometry x="3333" y="942" width="115" height="55" as="geometry" />
        </mxCell>
        <mxCell id="gk5LL37D9HSjhOJYbB8Y-13" value="&lt;div&gt;else&lt;/div&gt;" style="text;strokeColor=none;fillColor=none;html=1;align=center;verticalAlign=middle;whiteSpace=wrap;rounded=0;fontSize=16;" vertex="1" parent="1">
          <mxGeometry x="3273" y="814" width="60" height="30" as="geometry" />
        </mxCell>
      </root>
    </mxGraphModel>
  </diagram>
</mxfile>
